<svg width="182" height="112" viewBox="0 0 182 112" fill="none" xmlns="http://www.w3.org/2000/svg">
<rect width="182" height="112" fill="#F5F5F5" fill-opacity="0.03"/>
<g clip-path="url(#clip0_1_2)">
<rect width="375" height="812" transform="translate(0 -101)" fill="#F3F3F3"/>
<rect width="373" height="142" transform="translate(0 -15)" fill="#F9F9F9"/>
<rect x="-145" width="327" height="112" rx="10" fill="url(#paint0_linear_1_2)" fill-opacity="0.85"/>
<path d="M142.657 27.3786L140.005 30.1474V22.1989H142.657M147.076 25.6457L145.689 24.3838L144.425 25.6269V18.4318H147.076M151.496 24.0824L148.844 26.9077V14.6648H151.496M153.98 23.9035L152.38 22.1989H156.8V26.9077L155.218 25.222L148.844 31.9556L145.777 29.1114L142.436 32.5583H140.005L145.724 26.5875L148.844 29.394" fill="#F9F9F9"/>
<path fill-rule="evenodd" clip-rule="evenodd" d="M155.792 102.757H28.9258L28.8822 102.707C25.2165 99.0008 22.2636 95.4159 19.8561 91.7454C17.0414 87.4549 14.9322 83.0219 13.4121 78.1968C10.881 70.1361 9.60819 60.6571 9.83366 51.5059C10.0882 41.0861 12.2702 31.8494 16.1541 24.8078C20.3289 17.2317 26.3366 12.2855 34.0171 10.1046C38.0755 8.95713 42.3449 8.89298 47.0871 9.91928C50.8182 10.7246 54.8839 12.2356 59.5024 14.5376C64.6155 17.082 69.6122 20.0968 74.4343 23.0118C78.6164 25.5419 82.944 28.1575 87.337 30.4524C92.6319 33.2249 97.4613 35.2062 102.094 36.5247C107.535 38.0642 112.764 38.6557 117.63 38.2851C121.841 37.9573 126.3 36.9809 130.613 36.033C137.246 34.579 144.104 33.0752 150.258 33.902C153.581 34.351 156.433 35.42 158.978 37.1733C161.837 39.1475 164.237 41.9199 166.324 45.6545C168.702 49.9165 170.193 54.7558 170.746 60.0441C171.277 64.9975 170.972 70.2002 169.859 75.5171C168.782 80.6343 167.008 85.6161 164.579 90.32C162.157 95.0239 159.211 99.1933 155.836 102.707L155.792 102.757ZM29.0495 102.472H155.669C159.007 98.9866 161.917 94.86 164.324 90.1989C166.739 85.5164 168.506 80.5559 169.575 75.4672C170.681 70.1789 170.979 65.0046 170.463 60.0798C169.903 54.8271 168.426 50.0234 166.07 45.7899C164.004 42.0981 161.633 39.3613 158.811 37.4156C156.302 35.6837 153.494 34.6289 150.214 34.187C144.112 33.3674 137.282 34.8712 130.671 36.318C126.351 37.2659 121.885 38.2495 117.652 38.5702C112.75 38.9479 107.484 38.3564 102.014 36.8027C97.3595 35.4842 92.5155 33.4886 87.1988 30.709C82.7985 28.407 78.471 25.7913 74.2816 23.2612C69.4595 20.3462 64.4773 17.3386 59.3715 14.7942C54.7748 12.5064 50.7309 11.0026 47.0216 10.2044C42.3304 9.19232 38.1046 9.24934 34.0971 10.3825C26.4966 12.5421 20.5398 17.4455 16.4086 24.9503C7.90625 40.3805 9.04088 63.3297 13.6885 78.1184C15.2013 82.915 17.296 87.3266 20.1034 91.5958C22.489 95.2306 25.4202 98.7941 29.0495 102.472Z" fill="#BB5214"/>
<path d="M100.36 102.594H69.231V76.6511H100.36V102.594Z" fill="#864D0A"/>
<path opacity="0.6" d="M100.36 93.7276L69.231 90.998V76.6511H100.36V93.7276Z" fill="#522D02"/>
<path d="M132.543 85.9019H37.0456C35.6783 85.9019 34.5728 84.8115 34.5728 83.4716V18.8502C34.5728 17.5103 35.6783 16.427 37.0456 16.427H132.543C133.91 16.427 135.016 17.5103 135.016 18.8502V83.4716C135.016 84.8115 133.91 85.9019 132.543 85.9019Z" fill="#864D0A"/>
<path d="M130.27 19.6985V81.0414H39.3325V19.6985H130.27Z" fill="white"/>
<path opacity="0.3" d="M79.0443 36.6614V81.0418H39.3325V34.9509H77.2987C78.266 34.9509 79.0443 35.7207 79.0443 36.6614Z" fill="#DEB688"/>
<path opacity="0.3" d="M130.268 34.9509V81.0418H88.5562V36.6614C88.5562 35.7207 89.3417 34.9509 90.3017 34.9509H130.268Z" fill="#DEB688"/>
<path d="M25.3403 74.1048C25.3403 75.3663 26.3804 76.3855 27.6678 76.3855H72.849C74.1291 76.3855 75.1764 75.3663 75.1764 74.1048V28.8691H25.3403V74.1048Z" fill="white"/>
<text fill="#864D0A" xml:space="preserve" style="white-space: pre" font-family="Poppins" font-size="3.9924" font-weight="bold" letter-spacing="0em"><tspan x="59.5063" y="33.5078">Loss</tspan></text>
<path fill-rule="evenodd" clip-rule="evenodd" d="M72.8484 76.5282H27.6672C26.3071 76.5282 25.1943 75.4449 25.1943 74.105V28.7268H75.3213V74.105C75.3213 75.4449 74.2085 76.5282 72.8484 76.5282ZM25.4853 29.0119V74.105C25.4853 75.2881 26.4671 76.2431 27.6672 76.2431H72.8484C74.0485 76.2431 75.0304 75.2881 75.0304 74.105V29.0119H25.4853Z" fill="#864D0A"/>
<path d="M72.849 23.8735H27.6678C26.3804 23.8735 25.3403 24.8927 25.3403 26.1542V28.8696H75.1764V26.1542C75.1764 24.8927 74.1291 23.8735 72.849 23.8735Z" fill="#864D0A"/>
<path fill-rule="evenodd" clip-rule="evenodd" d="M75.3213 29.0124H25.1943V26.1544C25.1943 24.8145 26.3071 23.7312 27.6672 23.7312H72.8484C74.2085 23.7312 75.3213 24.8145 75.3213 26.1544V29.0124ZM25.4853 28.7273H75.0304V26.1544C75.0304 24.9713 74.0485 24.0163 72.8484 24.0163H27.6672C26.4671 24.0163 25.4853 24.9713 25.4853 26.1544V28.7273Z" fill="#864D0A"/>
<path d="M30.0917 26.354C30.0917 26.9028 29.6335 27.3518 29.0734 27.3518C28.5061 27.3518 28.0552 26.9028 28.0552 26.354C28.0552 25.7981 28.5061 25.3562 29.0734 25.3562C29.6335 25.3562 30.0917 25.7981 30.0917 26.354Z" fill="white"/>
<path fill-rule="evenodd" clip-rule="evenodd" d="M70.766 48.3913H29.7451V34.8499H70.766V48.3913ZM30.036 48.1062H70.4751V35.1349H30.036V48.1062Z" fill="#DADADA"/>
<path d="M70.6211 45.0778H29.8911V44.7927H70.6211V45.0778Z" fill="#DADADA"/>
<path d="M70.6211 41.7634H29.8911V41.4783H70.6211V41.7634Z" fill="#DADADA"/>
<path d="M70.6211 38.4491H29.8911V38.1641H70.6211V38.4491Z" fill="#DADADA"/>
<path d="M66.6893 48.2486H66.3994V34.9922H66.6893V48.2486Z" fill="#DADADA"/>
<path d="M62.6195 48.2486H62.3296V34.9922H62.6195V48.2486Z" fill="#DADADA"/>
<path d="M58.5448 48.2486H58.2549V34.9922H58.5448V48.2486Z" fill="#DADADA"/>
<path d="M54.4696 48.2486H54.1797V34.9922H54.4696V48.2486Z" fill="#DADADA"/>
<path d="M50.3997 48.2486H50.1099V34.9922H50.3997V48.2486Z" fill="#DADADA"/>
<path d="M46.3245 48.2486H46.0347V34.9922H46.3245V48.2486Z" fill="#DADADA"/>
<path d="M42.2547 48.2486H41.9648V34.9922H42.2547V48.2486Z" fill="#DADADA"/>
<path d="M38.18 48.2486H37.8901V34.9922H38.18V48.2486Z" fill="#DADADA"/>
<path d="M34.1048 48.2486H33.8149V34.9922H34.1048V48.2486Z" fill="#DADADA"/>
<path d="M70.4342 48.3844C70.1506 47.8285 69.8378 47.2013 69.336 46.7665C68.7468 46.2676 68.0122 46.175 67.474 46.5313C67.3576 46.6026 67.2413 46.7166 67.1104 46.8378C66.7685 47.1657 66.3394 47.579 65.7866 47.3581C65.3866 47.2013 65.1611 46.9019 64.9357 46.6097C64.7902 46.4244 64.6593 46.2534 64.4847 46.1108C64.0774 45.783 63.561 45.8115 62.8773 46.1964L62.8264 46.2249C62.4119 46.4529 61.9027 46.7452 61.4227 46.1964C61.19 45.9327 61.1318 45.6119 61.0809 45.2983C61.03 45.0275 60.9863 44.7781 60.8408 44.5785C60.4263 44.0012 59.8444 43.8017 59.2553 44.0297C58.9498 44.1438 58.608 44.5358 58.237 44.9562C57.6988 45.5692 57.1097 46.2463 56.4696 46.2463C56.3169 46.2463 56.1569 46.2035 55.9969 46.118C55.4878 45.8329 55.5314 45.2128 55.5605 44.6712C55.5896 44.1723 55.626 43.6948 55.2841 43.4809C54.8477 43.2172 54.2877 43.6948 54.0113 44.0796C53.604 44.6569 52.9203 45.2128 52.3239 45.1487C52.0766 45.1202 51.7202 44.9634 51.4875 44.3861C51.3057 43.9299 51.3348 43.4311 51.3566 42.9535C51.3784 42.6257 51.4002 42.3121 51.3493 42.0199C51.2766 41.578 50.9129 40.9865 50.3311 41.0506C49.9238 41.1005 49.7201 41.464 49.5019 41.856C49.3855 42.0698 49.2546 42.2907 49.0946 42.4618C48.84 42.7183 48.6 42.8181 48.3673 42.7611C48.0982 42.6898 47.8945 42.4047 47.7782 41.9486C47.7685 41.9249 47.7612 41.8964 47.7563 41.8631C47.6109 41.2217 47.4945 41.129 47.4509 41.1219C47.4509 41.1147 47.4145 41.129 47.3563 41.1931C47.2108 41.3571 47.2108 41.5994 47.2108 41.8631C47.2108 42.084 47.2181 42.3121 47.1236 42.5117C47.0072 42.7896 46.7381 42.982 46.4035 43.0319C45.9817 43.1032 45.5089 42.9535 45.2325 42.6613C44.8398 42.2337 44.687 41.5851 44.7889 40.7299C44.8689 40.0386 44.8543 38.1784 44.3452 37.8933C44.2216 37.822 44.047 37.8648 43.8361 38.0216C43.5233 38.2497 43.3342 38.8626 43.2833 39.3615C43.1815 40.4305 42.8396 41.4854 42.2942 42.4119C42.1269 42.7041 41.8796 43.0391 41.4868 43.1032C41.2832 43.1388 41.0723 43.0818 40.8904 42.9464C40.6359 42.7611 40.454 42.4404 40.4177 42.1054C40.3886 41.8346 40.4177 41.5638 40.454 41.3001C40.4758 41.0934 40.5049 40.9009 40.4977 40.7014C40.4831 40.288 40.2504 39.839 39.8722 39.8034C39.6758 39.782 39.3049 40.117 38.9994 40.3807C38.563 40.7655 38.1775 41.1005 37.8575 40.9865C37.6829 40.9223 37.5738 40.737 37.5302 40.4163C37.5253 40.364 37.5205 40.307 37.5156 40.2452C37.5011 39.9673 37.472 39.7535 37.312 39.7178C37.1593 39.6893 37.0865 39.7321 37.0429 39.7677C36.7665 39.9815 36.7811 40.7869 36.7956 41.2644C36.7956 41.4996 36.8029 41.6849 36.7811 41.7989C36.7156 42.1197 36.4756 42.4333 36.1919 42.5758C35.9883 42.6756 35.7701 42.6898 35.5737 42.5972C35.1519 42.4048 35.0718 41.8987 35.0573 41.4782L34.9191 38.6416C34.9046 38.2995 34.8464 37.8363 34.5336 37.708C34.427 37.6605 34.3106 37.6605 34.1845 37.708C33.9809 37.7935 33.7772 38.0002 33.6754 38.2354C33.6099 38.3993 33.559 38.5704 33.5154 38.7486C33.4499 39.0051 33.3772 39.2688 33.239 39.5112C33.0717 39.782 32.7517 39.9887 32.4462 40.0243C32.2207 40.0457 32.0171 39.9744 31.8789 39.8319C31.6243 39.5753 31.668 39.2189 31.7044 38.9054C31.7262 38.7557 31.7407 38.5918 31.7262 38.4492C31.6898 38.1427 31.4862 37.9717 31.3189 37.879C30.9625 37.6866 30.4315 37.6724 30.0533 37.8434L29.9297 37.5868C30.3879 37.373 31.0207 37.3873 31.4571 37.6296C31.7844 37.8078 31.9735 38.0786 32.0171 38.4207C32.0316 38.5918 32.0171 38.7699 31.9953 38.941C31.9589 39.2261 31.9298 39.4755 32.0898 39.6323C32.1674 39.7178 32.2741 39.7535 32.4099 39.7392C32.628 39.7107 32.8681 39.561 32.9844 39.3615C33.1081 39.1619 33.1663 38.9267 33.2317 38.6844C33.2826 38.4991 33.3336 38.3067 33.4063 38.1214C33.5445 37.8149 33.799 37.5583 34.0754 37.4443C34.2718 37.3659 34.4682 37.3659 34.65 37.4443C35.1155 37.6367 35.1955 38.214 35.21 38.6274L35.341 41.464C35.3628 41.8061 35.4137 42.2123 35.6973 42.3406C35.8089 42.3929 35.9301 42.3857 36.061 42.3192C36.2647 42.2194 36.4465 41.9843 36.4901 41.7419C36.5119 41.6635 36.5047 41.4711 36.5047 41.2644C36.4901 40.6729 36.4756 39.8533 36.8538 39.5468C36.992 39.4328 37.1665 39.3971 37.3702 39.4399C37.7629 39.5254 37.792 39.9459 37.8066 40.2239C37.8139 40.2809 37.8139 40.3379 37.8211 40.3807C37.8429 40.566 37.9011 40.6942 37.9593 40.7156C38.1121 40.7726 38.5121 40.4234 38.803 40.1668C39.203 39.8176 39.5812 39.4898 39.9013 39.5183C40.454 39.5682 40.774 40.1597 40.7886 40.6942C40.7959 40.9152 40.7668 41.129 40.7377 41.3357C40.7086 41.5923 40.6795 41.8346 40.7086 42.0698C40.7377 42.3264 40.8759 42.5829 41.065 42.7183C41.1862 42.8086 41.3123 42.8443 41.4432 42.8253C41.7123 42.7825 41.9014 42.5045 42.0396 42.2693C42.5633 41.3784 42.8978 40.3593 42.9924 39.333C43.0506 38.8127 43.2542 38.0929 43.6615 37.7935C43.9743 37.5655 44.2506 37.5156 44.4907 37.651C45.3271 38.1142 45.0798 40.7299 45.0725 40.7584C44.9852 41.5281 45.1162 42.1054 45.4507 42.4689C45.6617 42.6898 46.0253 42.811 46.3526 42.754C46.4981 42.7326 46.7454 42.6542 46.8545 42.4048C46.9272 42.2551 46.9199 42.0627 46.9199 41.8631C46.9199 41.5709 46.9199 41.2502 47.1381 41.0007C47.2908 40.8297 47.4363 40.8225 47.5236 40.8439C47.8145 40.9152 47.9382 41.3713 48.04 41.7989C48.0448 41.8322 48.0497 41.8583 48.0545 41.8773C48.1418 42.2194 48.2873 42.4404 48.44 42.4831C48.5928 42.5188 48.7673 42.3834 48.8837 42.2622C49.0219 42.1197 49.131 41.9272 49.2473 41.7134C49.4801 41.3001 49.7346 40.8297 50.302 40.7655C51.0002 40.6871 51.5311 41.3143 51.6402 41.9771C51.6911 42.2978 51.6693 42.6399 51.6475 42.9678C51.6257 43.4168 51.5966 43.8801 51.7566 44.2792C51.9021 44.6427 52.1057 44.8351 52.3603 44.8636C52.833 44.9135 53.4222 44.4075 53.7713 43.9157C54.1786 43.3455 54.8695 42.8965 55.4368 43.2457C55.9242 43.5451 55.8878 44.1509 55.8514 44.6925C55.8223 45.1914 55.7932 45.669 56.1424 45.8685C56.7533 46.2106 57.3933 45.4765 58.0188 44.7709C58.4116 44.3219 58.7825 43.9014 59.1462 43.7589C59.859 43.4881 60.5863 43.7304 61.0809 44.4146C61.2627 44.6712 61.3136 44.9634 61.3645 45.2485C61.4154 45.5335 61.4663 45.8044 61.6409 46.0111C61.9537 46.3603 62.2228 46.232 62.681 45.9754L62.7319 45.9469C63.5247 45.505 64.1574 45.4837 64.6738 45.8899C64.8702 46.0538 65.0229 46.2463 65.1684 46.4387C65.3721 46.7095 65.5684 46.9661 65.8957 47.0944C66.2448 47.2298 66.5212 47.0017 66.9067 46.6382C67.0449 46.5028 67.1758 46.3817 67.3067 46.2961C67.9686 45.8614 68.8341 45.9612 69.5251 46.5527C70.0706 47.0231 70.4051 47.6788 70.6961 48.2632L70.4342 48.3844Z" fill="#864D0A"/>
<path d="M40.6368 39.6463C40.6368 40.0027 40.3386 40.2878 39.9822 40.2878C39.6186 40.2878 39.3276 40.0027 39.3276 39.6463C39.3276 39.2971 39.6186 39.0049 39.9822 39.0049C40.3386 39.0049 40.6368 39.2971 40.6368 39.6463Z" fill="#8A7050"/>
<path d="M59.0104 44.7352C59.0104 45.0844 58.7194 45.3766 58.3558 45.3766C57.9994 45.3766 57.7012 45.0844 57.7012 44.7352C57.7012 44.3788 57.9994 44.0938 58.3558 44.0938C58.7194 44.0938 59.0104 44.3788 59.0104 44.7352Z" fill="#8A7050"/>
<path d="M32.9286 72.2739H29.9248V50.7002H32.9286V72.2739Z" fill="#DEB688"/>
<path d="M39.2035 72.2952H36.1997V53.6721H39.2035V72.2952Z" fill="#8A7050"/>
<path d="M45.4838 72.3234H42.48V57.4207H45.4838V72.3234Z" fill="#DEB688"/>
<path d="M51.7611 72.3383H48.75V59.7234H51.7611V72.3383Z" fill="#8A7050"/>
<path d="M58.0287 72.3094H55.0249V56.1309H58.0287V72.3094Z" fill="#DEB688"/>
<path d="M64.3036 72.324H61.2998V62.0325H64.3036V72.324Z" fill="#8A7050"/>
<path d="M70.5809 72.4243H67.5698V67.8772H70.5809V72.4243Z" fill="#DEB688"/>
<path d="M92.3403 28.8691V74.1048C92.3403 75.3663 93.3804 76.3855 94.6678 76.3855H139.842C141.129 76.3855 142.169 75.3663 142.169 74.1048V28.8691H92.3403Z" fill="white"/>
<text fill="#864D0A" xml:space="preserve" style="white-space: pre" font-family="Poppins" font-size="3.9924" font-weight="bold" letter-spacing="0em"><tspan x="131.406" y="33.5078">Profit</tspan></text>
<path fill-rule="evenodd" clip-rule="evenodd" d="M139.841 76.5282H94.6672C93.2999 76.5282 92.1943 75.4449 92.1943 74.105V28.7268H142.314V74.105C142.314 75.4449 141.201 76.5282 139.841 76.5282ZM92.4853 29.0119V74.105C92.4853 75.2881 93.4599 76.2431 94.6672 76.2431H139.841C141.041 76.2431 142.023 75.2881 142.023 74.105V29.0119H92.4853Z" fill="#864D0A"/>
<path d="M142.169 26.1542C142.169 24.8927 141.129 23.8735 139.842 23.8735H94.6678C93.3804 23.8735 92.3403 24.8927 92.3403 26.1542V28.8696H142.169V26.1542Z" fill="#864D0A"/>
<path fill-rule="evenodd" clip-rule="evenodd" d="M142.314 29.0124H92.1943V26.1544C92.1943 24.8145 93.2999 23.7312 94.6672 23.7312H139.841C141.201 23.7312 142.314 24.8145 142.314 26.1544V29.0124ZM92.4853 28.7273H142.023V26.1544C142.023 24.9713 141.041 24.0163 139.841 24.0163H94.6672C93.4599 24.0163 92.4853 24.9713 92.4853 26.1544V28.7273Z" fill="#864D0A"/>
<path d="M97.3344 26.354C97.3344 26.9028 96.8834 27.3518 96.3161 27.3518C95.7561 27.3518 95.2979 26.9028 95.2979 26.354C95.2979 25.7981 95.7561 25.3562 96.3161 25.3562C96.8834 25.3562 97.3344 25.7981 97.3344 26.354Z" fill="white"/>
<path d="M134.58 72.2739H137.583V50.7002H134.58V72.2739Z" fill="#DEB688"/>
<path d="M128.3 72.2808H131.304V51.5481H128.3V72.2808Z" fill="#8A7050"/>
<path d="M122.025 72.3021H125.036V55.0474H122.025V72.3021Z" fill="#DEB688"/>
<path d="M115.755 72.309H118.759V57.4846H115.755V72.309Z" fill="#8A7050"/>
<path d="M109.48 72.3662H112.484V61.9678H109.48V72.3662Z" fill="#DEB688"/>
<path d="M103.2 72.388H106.204V65.6814H103.2V72.388Z" fill="#8A7050"/>
<path d="M96.9248 72.4238H99.9359V67.8767H96.9248V72.4238Z" fill="#DEB688"/>
<path d="M105.115 54.05H99.4998C99.0198 54.05 98.6343 54.4278 98.6343 54.8982V58.2622C98.6343 58.7326 99.0198 59.1174 99.4998 59.1174H103.027L104.089 60.7495L105.151 59.1103C105.617 59.0889 105.988 58.7183 105.988 58.2622V54.8982C105.988 54.4278 105.595 54.05 105.115 54.05Z" fill="#DEB688"/>
<path d="M102.306 55.1838L102.75 56.0676L103.746 56.2101L103.026 56.8943L103.193 57.8636L102.306 57.4075L101.419 57.8636L101.586 56.8943L100.873 56.2101L101.862 56.0676L102.306 55.1838Z" fill="white"/>
<path fill-rule="evenodd" clip-rule="evenodd" d="M137.761 48.3913H96.7402V34.8499H137.761V48.3913ZM97.0312 48.1062H137.47V35.1349H97.0312V48.1062Z" fill="#DADADA"/>
<path d="M137.616 45.0778H96.8862V44.7927H137.616V45.0778Z" fill="#DADADA"/>
<path d="M137.616 41.7634H96.8862V41.4783H137.616V41.7634Z" fill="#DADADA"/>
<path d="M137.616 38.4491H96.8862V38.1641H137.616V38.4491Z" fill="#DADADA"/>
<path d="M133.684 48.2486H133.395V34.9922H133.684V48.2486Z" fill="#DADADA"/>
<path d="M129.615 48.2486H129.325V34.9922H129.615V48.2486Z" fill="#DADADA"/>
<path d="M125.54 48.2486H125.25V34.9922H125.54V48.2486Z" fill="#DADADA"/>
<path d="M121.465 48.2486H121.175V34.9922H121.465V48.2486Z" fill="#DADADA"/>
<path d="M117.395 48.2486H117.105V34.9922H117.395V48.2486Z" fill="#DADADA"/>
<path d="M113.32 48.2486H113.03V34.9922H113.32V48.2486Z" fill="#DADADA"/>
<path d="M109.25 48.2486H108.96V34.9922H109.25V48.2486Z" fill="#DADADA"/>
<path d="M105.175 48.2486H104.885V34.9922H105.175V48.2486Z" fill="#DADADA"/>
<path d="M101.1 48.2486H100.81V34.9922H101.1V48.2486Z" fill="#DADADA"/>
<path d="M100.227 46.1735C100.149 46.1735 100.069 46.1664 99.9867 46.1521C99.3394 46.0238 99.2157 45.4537 99.1212 44.9904C99.0266 44.52 98.9466 44.2278 98.5757 44.1922C98.1466 44.1565 97.412 44.6911 97.0556 45.0688L96.8374 44.8692C97.1138 44.5842 97.972 43.8572 98.5975 43.9071C99.2085 43.9641 99.3176 44.4773 99.4121 44.9405C99.5212 45.4608 99.6158 45.7886 100.045 45.8742C100.75 46.0096 101.041 45.304 101.303 44.4986L102.198 41.7119C102.336 41.2772 102.496 40.7854 102.852 40.4219C103.194 40.0656 103.827 39.8375 104.314 40.1226C104.678 40.3364 104.86 40.7569 104.86 41.3556C104.86 41.4649 104.857 41.5789 104.852 41.6977C104.838 42.1467 104.823 42.6456 104.991 43.002C105.071 43.1659 105.216 43.2942 105.369 43.3369C105.49 43.3702 105.606 43.3536 105.718 43.287C106.053 43.0732 106.096 42.667 106.14 42.2394C106.162 41.9756 106.191 41.6977 106.3 41.4625C106.496 41.0277 106.969 40.8353 107.442 41.0064C108.409 41.3556 108.365 42.5031 108.336 43.2657V43.3512C108.315 43.8928 108.373 44.6554 108.787 45.2042C108.947 45.4252 109.173 45.5463 109.376 45.5392C109.558 45.5321 109.718 45.418 109.842 45.2185C110.053 44.8764 110.075 44.3989 110.096 43.9356C110.104 43.8002 110.111 43.6648 110.126 43.5365L110.322 41.5195C110.402 40.6856 110.7 40.1867 111.18 40.0727C111.391 40.0228 111.58 40.0585 111.733 40.1654C111.98 40.3364 112.133 40.6856 112.191 41.2344C112.206 41.3841 112.198 41.548 112.191 41.7262C112.162 42.3035 112.177 42.6884 112.598 42.7953C112.868 42.8665 113.166 42.6812 113.311 42.4603C113.493 42.1752 113.544 41.8189 113.595 41.4696C113.605 41.3698 113.619 41.2724 113.639 41.1774C113.748 40.5003 113.893 39.7021 114.089 38.9253V38.9181C114.199 38.4762 114.351 37.8847 114.817 37.621C115.166 37.4214 115.45 37.4713 115.617 37.5569C116.039 37.7564 116.293 38.3195 116.366 38.797C116.41 39.1034 116.402 39.4384 116.395 39.7591C116.388 40.1868 116.381 40.6358 116.497 41.0135C116.621 41.3841 116.999 41.8545 117.479 41.7262C117.995 41.5908 118.097 41.156 118.221 40.6571C118.242 40.5574 118.272 40.4576 118.301 40.3578C118.526 39.5738 118.832 38.4976 119.53 37.8063C119.952 37.3787 120.628 37.286 121.166 37.5711C121.974 38.013 121.966 38.9609 121.959 39.809C121.959 40.2438 121.952 40.6571 122.054 40.9707C122.192 41.377 122.417 41.6335 122.737 41.7262C122.999 41.8046 123.239 41.7832 123.45 41.6621C123.843 41.434 124.076 40.9066 124.163 40.4932L124.207 40.315C124.388 39.4455 124.643 38.2624 125.21 37.6139C125.588 37.172 126.105 37.0009 126.614 37.1364C127.167 37.2789 127.596 37.7635 127.705 38.3693C127.715 38.4406 127.727 38.5119 127.741 38.5832C127.778 38.8183 127.807 39.0393 127.894 39.2388C128.01 39.5239 128.214 39.695 128.461 39.7306C128.73 39.7663 129.021 39.6237 129.232 39.36C129.392 39.1533 129.501 38.9181 129.618 38.6687C129.691 38.519 129.763 38.3693 129.843 38.2197C130.607 36.8798 132.214 36.3524 133.465 36.3096C134.92 36.2526 136.331 36.7016 137.567 37.1007L137.48 37.3715C136.258 36.9796 134.876 36.5448 133.48 36.5947C132.309 36.6303 130.803 37.1221 130.098 38.3551C130.018 38.4976 129.952 38.6473 129.887 38.7898C129.763 39.0393 129.647 39.303 129.465 39.5311C129.189 39.8803 128.796 40.0585 128.425 40.0086C128.069 39.9658 127.785 39.7235 127.625 39.3457C127.523 39.1106 127.487 38.8682 127.45 38.6259C127.441 38.5546 127.429 38.4857 127.414 38.4192C127.327 37.9203 126.985 37.5283 126.541 37.4072C126.141 37.3003 125.734 37.4428 125.428 37.7992C124.912 38.3979 124.665 39.5382 124.49 40.3721L124.454 40.5502C124.316 41.1632 124.003 41.6692 123.603 41.9044C123.312 42.0683 122.992 42.1039 122.65 42.0042C122.243 41.883 121.937 41.5551 121.777 41.0563C121.661 40.6999 121.668 40.2651 121.668 39.8019C121.675 39.0037 121.683 38.1769 121.028 37.8206C120.599 37.5925 120.068 37.6709 119.733 38.0059C119.093 38.6473 118.795 39.6807 118.577 40.4362C118.555 40.5289 118.526 40.6286 118.504 40.7213C118.381 41.2344 118.235 41.8189 117.559 42.0042C116.955 42.161 116.402 41.6692 116.221 41.099C116.09 40.6714 116.097 40.2081 116.104 39.752C116.111 39.4313 116.119 39.1248 116.075 38.8326C116.017 38.4335 115.799 37.956 115.493 37.8134C115.333 37.735 115.159 37.7564 114.962 37.8633C114.599 38.07 114.475 38.576 114.373 38.9823V38.9965C114.177 39.7591 114.039 40.5502 113.922 41.2202C113.908 41.3152 113.893 41.4102 113.879 41.5053C113.828 41.883 113.777 42.275 113.559 42.6171C113.355 42.9236 112.94 43.1801 112.526 43.0732C111.842 42.895 111.871 42.2108 111.9 41.7119C111.908 41.548 111.915 41.3912 111.9 41.2629C111.842 40.6999 111.682 40.479 111.566 40.4006C111.478 40.3364 111.377 40.3222 111.246 40.3507C110.78 40.4576 110.649 41.1489 110.613 41.548L110.416 43.565C110.402 43.6862 110.395 43.8144 110.387 43.9499C110.366 44.4274 110.336 44.9619 110.089 45.3681C109.915 45.6461 109.667 45.81 109.391 45.8243C109.085 45.8385 108.78 45.6746 108.555 45.3753C108.089 44.7623 108.024 43.9285 108.045 43.3369V43.2585C108.075 42.5387 108.111 41.5552 107.34 41.2772C107.013 41.156 106.7 41.2772 106.562 41.5765C106.474 41.769 106.453 42.0113 106.424 42.2679C106.38 42.724 106.329 43.2371 105.871 43.5294C105.696 43.6434 105.493 43.6719 105.289 43.6149C105.049 43.5436 104.838 43.3583 104.729 43.116C104.532 42.7097 104.547 42.1681 104.562 41.6906C104.566 41.5718 104.569 41.4601 104.569 41.3556C104.569 40.8638 104.431 40.5288 104.162 40.3721C103.805 40.1582 103.332 40.3364 103.063 40.6144C102.758 40.9351 102.605 41.3912 102.474 41.7975L101.58 44.5842C101.383 45.19 101.07 46.1735 100.227 46.1735Z" fill="#864D0A"/>
<path d="M109.963 45.5396C109.963 45.896 109.672 46.1811 109.308 46.1811C108.945 46.1811 108.654 45.896 108.654 45.5396C108.654 45.1833 108.945 44.8982 109.308 44.8982C109.672 44.8982 109.963 45.1833 109.963 45.5396Z" fill="#8A7050"/>
<path d="M134.184 36.4168C134.184 36.7732 133.893 37.0583 133.53 37.0583C133.166 37.0583 132.875 36.7732 132.875 36.4168C132.875 36.0605 133.166 35.7754 133.53 35.7754C133.893 35.7754 134.184 36.0605 134.184 36.4168Z" fill="#8A7050"/>
<path d="M158.436 85.4101C158.312 85.6809 158.167 85.8876 158.021 86.0515C157.061 87.0422 155.665 85.9446 154.705 83.0368L152.813 79.238L153.541 75.981C153.541 75.981 154.13 74.8121 155.112 74.3774C155.563 74.1778 156.094 74.135 156.69 74.4344C158.581 75.3894 159.41 83.3718 158.436 85.4101Z" fill="#A7A7A7"/>
<path d="M158.435 85.4101C158.311 85.6809 158.166 85.8876 158.02 86.0515C158.049 77.2496 156.391 74.7836 155.111 74.3774C155.562 74.1778 156.093 74.135 156.689 74.4344C158.58 75.3894 159.409 83.3718 158.435 85.4101Z" fill="#404040"/>
<path d="M146.809 92.7869C146.627 93.0221 146.445 93.2003 146.256 93.3214C145.099 94.084 143.987 92.7085 143.703 89.6652L142.707 85.5529L144.147 82.531C144.147 82.531 144.983 81.519 146.038 81.3051C146.525 81.2125 147.049 81.2838 147.565 81.7043C149.194 83.037 148.212 91.0051 146.809 92.7869Z" fill="#A7A7A7"/>
<path d="M146.809 92.7869C146.627 93.0221 146.445 93.2003 146.256 93.3214C148.264 84.7404 147.195 81.9751 146.038 81.3051C146.525 81.2125 147.049 81.2838 147.565 81.7043C149.195 83.037 148.213 91.0051 146.809 92.7869Z" fill="#404040"/>
<path d="M145.393 86.1016C145.393 86.1016 144.346 87.2348 142.862 88.2825C142.04 88.8669 141.08 89.43 140.091 89.7507C138.295 90.328 136.411 90.1284 135.065 87.8834C132.563 83.7069 133.102 74.178 133.567 69.3815C133.742 67.6282 133.902 66.5021 133.902 66.5021L142.266 64.2927L142.368 64.984L142.644 66.9012L144.179 77.6489L145.393 86.1016Z" fill="white"/>
<path opacity="0.6" d="M145.395 86.1017C145.395 86.1017 142.857 88.8528 140.093 89.7508C137.082 83.7569 139.431 72.3464 139.431 72.3464L144.181 77.649L145.395 86.1017Z" fill="#3C3C3C"/>
<path d="M154.702 83.0368C154.702 83.0368 149.866 91.3043 144.28 89.2588C143.756 89.0664 143.291 88.7385 142.861 88.2824C139.37 84.562 138.934 72.8807 138.905 68.1911C138.898 66.9652 138.919 66.2169 138.919 66.2169C138.919 66.2169 140.599 65.6111 142.367 64.9839C144.222 64.3282 146.178 63.6369 146.36 63.6013C146.76 63.5229 147.102 63.9362 147.4 64.6632C148.775 68.0699 149.08 78.4755 149.08 78.4755L153.539 75.981C155.72 78.4042 154.702 83.0368 154.702 83.0368Z" fill="white"/>
<path d="M139.428 78.3972C139.101 76.0809 138.912 72.9949 138.89 72.496L136.723 70.9993L136.897 70.7712L139.166 72.3392L139.174 72.4105C139.174 72.4461 139.363 75.8529 139.719 78.3616L139.428 78.3972Z" fill="#8A8A8A"/>
<path d="M147.276 85.2961C146.825 85.2961 146.367 85.1963 145.945 84.9897C145.028 84.5407 144.418 83.6711 144.316 82.6734L142.337 63.3803L142.628 63.3518L144.607 82.6448C144.701 83.5429 145.247 84.3268 146.076 84.7331C146.963 85.1678 148.018 85.0894 148.825 84.5335L155.007 80.2573L155.175 80.4925L148.992 84.7616C148.483 85.1179 147.88 85.2961 147.276 85.2961Z" fill="#8A8A8A"/>
<path opacity="0.6" d="M147.4 64.6632C146.454 65.1906 144.81 66.0459 142.643 66.9011C141.523 67.343 140.272 67.792 138.904 68.1911C137.275 68.6686 135.479 69.0963 133.566 69.3813C133.74 67.6281 133.9 66.502 133.9 66.502L142.265 64.2926L142.367 64.9839C144.221 64.3282 146.178 63.6369 146.36 63.6013C146.76 63.5229 147.101 63.9362 147.4 64.6632Z" fill="#3C3C3C"/>
<path d="M129.025 39.5626L127.403 42.2495L125.316 41.9145C125.221 41.4584 125.12 40.9738 125.025 40.4891C124.589 38.3153 124.24 36.1059 124.64 35.8565C124.923 35.6783 125.069 36.0489 125.149 36.391C125.083 35.8066 125.032 34.873 125.411 34.6948C125.811 34.5095 126.022 35.4859 126.116 36.0703C126.058 35.5001 126.014 34.5166 126.407 34.2672C126.851 33.9821 127.018 35.4217 127.069 36.0347C127.047 35.5429 127.047 34.5451 127.425 34.4525C127.876 34.3456 127.971 36.5763 127.978 37.0538C127.978 36.7973 128.014 36.0774 128.393 36.1202C128.858 36.163 129.025 39.5626 129.025 39.5626Z" fill="#F9B384"/>
<path d="M129.028 39.5625L127.406 42.2494L125.318 41.9144C125.224 41.4583 125.122 40.9737 125.027 40.489L129.028 39.5625Z" fill="#E28B6D"/>
<path d="M136.276 57.6155L136.138 58.3639L135.498 59.0908C133.643 58.5991 132.072 57.2449 130.763 55.4988C131.832 56.2828 134.553 58.1073 136.276 57.6155Z" fill="#AB4446"/>
<path d="M147.312 59.724C146.243 59.4176 145.538 58.5908 145.538 58.5908L147.247 57.593L147.312 59.724Z" fill="#AB4446"/>
<path d="M158.292 42.484L159.063 45.513L161.158 45.7839C161.383 45.3705 161.623 44.9357 161.856 44.501C162.903 42.541 163.892 40.5169 163.58 40.1677C163.361 39.9183 163.107 40.2319 162.932 40.5312C163.172 39.9967 163.492 39.1129 163.18 38.835C162.852 38.5499 162.365 39.4265 162.103 39.9539C162.329 39.4265 162.656 38.5 162.35 38.1436C162.009 37.7516 161.434 39.0844 161.201 39.6546C161.369 39.1913 161.659 38.2363 161.318 38.0438C160.918 37.8158 160.176 39.9183 160.03 40.3744C160.103 40.125 160.278 39.4336 159.907 39.3624C159.448 39.2768 158.292 42.484 158.292 42.484Z" fill="#F9B384"/>
<path d="M158.292 42.4844L159.063 45.5134L161.158 45.7842C161.383 45.3708 161.623 44.9361 161.856 44.5013L158.292 42.4844Z" fill="#E28B6D"/>
<path d="M141.751 52.0349L136.137 58.3638L135.496 59.0907C133.642 58.599 132.071 57.2448 130.762 55.4987C126.929 50.3814 125.314 41.9144 125.314 41.9144L129.023 39.5625C133.242 55.6697 141.751 52.0349 141.751 52.0349Z" fill="#5BBC21"/>
<path d="M147.642 64.6423C144.755 66.5309 141.155 67.0726 137.765 67.265C136.783 67.3149 135.794 67.3363 134.812 67.2935C134.332 67.2721 133.772 67.2935 133.314 67.1439C132.441 66.8588 133.023 66.1461 133.751 65.5046C134.478 64.8632 134.769 55.0991 134.769 55.0991L141.751 52.0344L147.133 53.6024L147.242 57.5936L147.308 59.7246L147.381 62.3402C147.395 62.7821 147.599 63.2026 147.948 63.4948C148.471 63.9295 148.093 64.35 147.642 64.6423Z" fill="#5BBC21"/>
<path d="M142.264 51.8211C142.264 51.8211 152.01 53.7454 158.294 42.4846L161.16 45.7845C161.16 45.7845 153.065 58.7914 145.537 58.5918L142.264 51.8211Z" fill="#5BBC21"/>
<path d="M141.124 55.7977C139.815 55.7977 138.971 54.921 138.957 54.9139L139.175 54.7144C139.24 54.7856 140.862 56.4534 143.124 54.7714L143.299 54.9994C142.499 55.5981 141.757 55.7977 141.124 55.7977Z" fill="#2B6A05"/>
<path d="M134.531 62.4763L134.241 62.4549L134.677 55.563L134.968 55.5844L134.531 62.4763Z" fill="#2B6A05"/>
<path d="M159.49 47.9794C158.275 46.7892 157.089 44.4729 157.039 44.3802L157.3 44.252C157.315 44.2733 158.515 46.6181 159.693 47.7799L159.49 47.9794Z" fill="#2B6A05"/>
<path d="M125.969 44.2942L125.824 44.0519L129.606 41.814L129.751 42.0563L125.969 44.2942Z" fill="#2B6A05"/>
<path d="M141.171 57.237C141.171 57.5007 140.953 57.7145 140.684 57.7145C140.423 57.7145 140.205 57.5007 140.205 57.237C140.205 56.9733 140.423 56.7595 140.684 56.7595C140.953 56.7595 141.171 56.9733 141.171 57.237Z" fill="#2B6A05"/>
<path d="M143.722 48.7357L143.191 52.7554C143.068 53.6748 142.209 54.3234 141.271 54.2022C140.326 54.0811 139.664 53.2401 139.787 52.3207L140.318 48.3081L143.722 48.7357Z" fill="#F9B384"/>
<path d="M141.802 50.0606C141.802 50.0606 141.336 51.7924 139.787 52.3127L140.158 49.5403L141.802 50.0606Z" fill="#102048"/>
<path d="M139.324 45.471C139.324 45.471 138.764 47.8514 138.662 49.5476C138.604 50.5169 139.928 52.035 142.292 49.9325L143.739 48.5784L143.856 46.2407L141.674 45.2856L139.324 45.471Z" fill="#F9B384"/>
<path d="M143.241 48.443C143.241 48.443 143.459 47.153 142.863 46.6897C142.863 46.6897 139.386 47.716 137.801 44.7012C137.801 44.7012 138.834 45.0719 139.99 44.3093C141.045 43.6037 142.856 43.1832 143.852 44.9151C143.852 44.9151 146.347 44.801 144.492 48.4358L143.241 48.443Z" fill="#373844"/>
<path d="M144.637 49.2344C144.237 49.7903 143.525 49.9756 143.052 49.6478C142.572 49.3199 142.506 48.6072 142.899 48.0513C143.299 47.4954 144.005 47.3101 144.485 47.6379C144.965 47.9658 145.03 48.6785 144.637 49.2344Z" fill="#F9B384"/>
<path d="M139.548 47.7374C139.548 47.8371 139.461 47.9227 139.352 47.9227C139.243 47.9227 139.156 47.8371 139.156 47.7374C139.156 47.6304 139.243 47.5449 139.352 47.5449C139.461 47.5449 139.548 47.6304 139.548 47.7374Z" fill="#102048"/>
<path d="M141.008 47.8443C141.008 47.9441 140.921 48.0296 140.819 48.0296C140.71 48.0296 140.623 47.9441 140.623 47.8443C140.623 47.7374 140.71 47.6519 140.819 47.6519C140.921 47.6519 141.008 47.7374 141.008 47.8443Z" fill="#102048"/>
<path d="M139.586 49.2414C139.567 49.2414 139.55 49.2366 139.535 49.2271C139.361 49.0632 139.288 48.9064 139.317 48.7496C139.361 48.5358 139.593 48.4075 139.681 48.3648L139.79 47.9086C139.804 47.873 139.841 47.8445 139.877 47.8587C139.921 47.8659 139.942 47.9015 139.935 47.9443L139.804 48.4645L139.768 48.4788C139.768 48.4788 139.499 48.5928 139.463 48.7781C139.443 48.8827 139.501 48.9967 139.637 49.1202C139.666 49.1487 139.666 49.1915 139.637 49.22C139.623 49.2343 139.601 49.2414 139.586 49.2414Z" fill="#102048"/>
<path d="M139.845 47.2027C139.831 47.2027 139.809 47.1955 139.795 47.1742C139.497 46.8534 139.06 47.0744 139.06 47.0744C139.024 47.0886 138.98 47.0815 138.959 47.0459C138.944 47.0102 138.951 46.9675 138.988 46.9461C138.995 46.9461 139.526 46.6753 139.904 47.0815C139.925 47.11 139.925 47.1528 139.896 47.1813C139.882 47.1956 139.865 47.2027 139.845 47.2027Z" fill="#102048"/>
<path d="M141.441 47.4878C141.419 47.4878 141.398 47.4807 141.383 47.4593C141.019 47.0602 140.532 47.3025 140.518 47.3096C140.481 47.331 140.438 47.3168 140.416 47.2811C140.401 47.2455 140.408 47.2027 140.445 47.1885C140.452 47.1814 141.048 46.882 141.492 47.3667C141.521 47.3952 141.514 47.4379 141.485 47.4664C141.47 47.4807 141.456 47.4878 141.441 47.4878Z" fill="#102048"/>
<path d="M139.767 49.7046C139.665 49.7046 139.593 49.6975 139.585 49.6975C139.542 49.6904 139.52 49.6476 139.52 49.612C139.527 49.5764 139.571 49.5479 139.607 49.555C139.615 49.555 140.218 49.6476 140.596 49.2343C140.626 49.2058 140.669 49.1986 140.698 49.2271C140.727 49.2556 140.727 49.2984 140.706 49.3269C140.407 49.6548 140 49.7046 139.767 49.7046Z" fill="#102048"/>
<path opacity="0.4" d="M142.67 48.6918C142.67 49.0767 142.35 49.3831 141.964 49.3831C141.572 49.3831 141.259 49.0767 141.259 48.6918C141.259 48.3141 141.572 48.0005 141.964 48.0005C142.35 48.0005 142.67 48.3141 142.67 48.6918Z" fill="#EB5D60"/>
<path d="M143.407 48.8634C143.402 48.8634 143.397 48.8634 143.392 48.8634C143.356 48.8491 143.327 48.8135 143.341 48.7778C143.341 48.7636 143.421 48.4571 143.705 48.3074C143.901 48.2077 144.127 48.2077 144.389 48.3003C144.432 48.3074 144.447 48.3502 144.432 48.3858C144.425 48.4286 144.381 48.4429 144.345 48.4286C144.119 48.3502 143.93 48.3502 143.778 48.4286C143.552 48.5498 143.479 48.8063 143.479 48.8063C143.472 48.842 143.443 48.8634 143.407 48.8634Z" fill="#102048"/>
<path d="M30.6781 66.9277L29.5508 69.9567L33.2601 70.8476L34.1693 67.0703L30.6781 66.9277Z" fill="#E28B6D"/>
<path d="M36.3328 65.431C36.0127 67.2983 34.4272 68.5241 32.1725 68.0466C30.3978 67.6689 29.1759 66.3646 29.8887 64.0982C30.4997 62.1668 32.1361 60.9338 33.9472 61.0692C36.2019 61.2331 36.6892 63.3499 36.3328 65.431Z" fill="#373844"/>
<path d="M9.82474 97.2822L3.91162 102.606H11.9267L13.4614 97.6172L9.82474 97.2822Z" fill="#7D4504"/>
<path d="M18.5512 96.954L13.4599 97.6168L11.9253 102.606H19.3294C19.3294 102.606 18.6748 96.8329 18.5512 96.954Z" fill="#E28B6D"/>
<path d="M33.6792 95.2437L28.377 102.563L28.3479 102.613H14.5288V102.606L14.8779 99.4986L15.1179 97.4032L15.2561 96.1987L23.0603 95.1011L22.4784 91.2097C21.8529 89.8912 21.6929 88.5727 21.7511 87.4253C21.8529 85.3869 22.6239 83.8902 22.6239 83.8902L29.8462 83.655L30.188 84.6742L31.0899 87.4039L33.6792 95.2437Z" fill="white"/>
<path d="M17.3384 97.2822L11.4253 102.606H19.4404L20.975 97.6172L17.3384 97.2822Z" fill="#7D4504"/>
<path d="M26.0649 96.954L20.9736 97.6168L19.439 102.606H26.8431C26.8431 102.606 26.1885 96.8329 26.0649 96.954Z" fill="#E28B6D"/>
<path d="M39.5911 99.62C39.1038 100.525 38.4274 101.152 37.6201 101.58C35.2054 102.87 31.627 102.435 28.3758 102.563C27.874 102.585 27.3794 102.599 26.9139 102.613C25.7211 102.635 24.6883 102.628 23.9465 102.613C23.8301 102.613 23.7283 102.606 23.6337 102.606C23.0519 102.592 22.7173 102.578 22.7173 102.578L22.8918 97.3678L22.9355 95.9139L31.5906 95.2012L28.5722 87.7106L27.3721 84.7243L30.1869 84.6744L35.0745 84.596L35.8818 84.5818C35.8818 84.5818 36.0345 84.9168 36.2818 85.5012C36.3109 85.5796 36.34 85.658 36.3764 85.7435C37.3946 88.1738 39.5111 93.8114 39.8312 97.2823C39.9257 98.2872 39.8675 99.1068 39.5911 99.62Z" fill="white"/>
<path d="M36.3769 85.7433C36.3769 85.7433 34.1004 86.8907 31.0893 87.4039C30.3256 87.5393 29.4892 87.6462 28.5728 87.7103C26.6308 87.8529 24.347 87.8101 21.7505 87.4253C21.8523 85.3869 22.6233 83.8902 22.6233 83.8902L29.8456 83.655L30.1874 84.6742L35.075 84.5958L36.2824 85.5009L36.3769 85.7433Z" fill="#D3D3D3"/>
<path opacity="0.4" d="M39.5908 99.6199C39.1035 100.525 38.4271 101.152 37.6198 101.58C37.4525 101.209 37.3652 100.789 37.3652 100.354C37.3652 98.8644 38.4126 97.6172 39.8309 97.2822C39.9254 98.2871 39.8672 99.1068 39.5908 99.6199Z" fill="#929292"/>
<path d="M22.8622 102.584L22.5713 102.57L22.7968 95.7852L22.9204 95.771C23.0077 95.7639 31.6264 94.8658 34.8048 95.0583L34.783 95.3434C31.8446 95.1652 24.1568 95.9278 23.0804 96.0418L22.8622 102.584Z" fill="#858585"/>
<path d="M29.861 95.3432L27.9845 90.4968C27.7881 90.3756 26.9662 89.8624 26.3989 89.2638L26.6098 89.0642C27.2208 89.7128 28.1663 90.2687 28.1809 90.2758L28.2245 90.3043L30.1301 95.2434L29.861 95.3432Z" fill="#858585"/>
<path d="M17.151 102.806L16.8892 102.678L17.9801 100.575L18.242 100.703L17.151 102.806Z" fill="white"/>
<path d="M9.00597 102.664L8.74414 102.535L9.83512 100.433L10.097 100.561L9.00597 102.664Z" fill="white"/>
<path d="M28.3675 61.7263C28.3675 61.7263 30.7168 59.6595 30.5568 59.41C30.3677 59.1249 30.004 59.2033 29.8222 59.2604C29.7567 59.2889 29.7203 59.3031 29.7203 59.3031C29.7203 59.3031 29.7567 59.2817 29.8222 59.2604C30.1276 59.1463 30.9641 58.7757 30.7459 58.4835C30.5568 58.2341 29.9531 58.3267 29.9531 58.3267C29.9531 58.3267 30.9859 57.5356 30.4258 57.4857C29.8731 57.4358 29.2112 57.7352 29.2112 57.7352C29.2112 57.7352 29.8731 57.1294 29.5531 57.0581C29.393 57.0225 27.4293 57.7779 25.0728 59.1606C25.7419 60.1584 26.7892 61.6622 27.4438 62.5958L28.3675 61.7263Z" fill="#E28B6D"/>
<path d="M25.0431 71.6328C23.0066 75.2748 21.7411 79.2089 20.9774 83.3212C20.8537 83.9912 21.232 84.654 21.8865 84.8821C26.585 86.5356 31.4726 86.7137 36.4984 85.6732C37.1676 85.5306 37.633 84.9462 37.6185 84.2834C37.5676 81.9671 37.5167 76.579 38.0403 73.1509L25.0431 71.6328Z" fill="#7D4504"/>
<path d="M44.4638 68.1545L42.5218 62.5883L38.7688 64.3273C39.2852 66.4726 39.8816 68.6748 39.8816 68.6748C32.1357 71.3831 23.8806 66.216 23.8806 66.216L27.4444 62.5954C26.7899 61.6618 25.7425 60.1579 25.0734 59.1602C23.4078 60.1437 21.5386 61.4408 19.9676 62.9945C19.1603 63.7999 18.6293 64.8262 18.4548 65.9451C18.2366 67.3207 18.5711 68.7318 19.393 69.865L23.9824 75.5311L37.5542 76.5859L42.5655 73.4714C43.0964 73.1364 43.5619 72.6945 43.9183 72.1814C44.7329 70.9983 44.9365 69.5087 44.4638 68.1545Z" fill="#7D4504"/>
<path d="M19.3357 63.7588C19.6049 64.2007 19.7721 64.7067 19.8158 65.2413C19.9103 66.3317 19.4885 67.5219 18.6812 68.4912C18.703 68.5625 18.7393 68.6409 18.7684 68.7122C19.663 67.6859 20.1358 66.403 20.034 65.2199C19.9903 64.6283 19.7794 64.0582 19.4739 63.5664C19.4254 63.6282 19.3794 63.6923 19.3357 63.7588Z" fill="white"/>
<path d="M44.6213 68.7336C43.9449 69.0971 43.3558 69.6174 42.9557 70.2731C42.3666 71.2495 42.2211 72.4255 42.483 73.5159L42.563 73.4732C42.5993 73.4447 42.6357 73.4161 42.6793 73.3876C42.4539 72.3756 42.5993 71.2851 43.1448 70.3871C43.5085 69.7813 44.0394 69.2967 44.6577 68.9546C44.6431 68.8833 44.6358 68.8049 44.6213 68.7336Z" fill="white"/>
<path d="M37.6007 82.7304C35.6878 83.2934 33.7095 83.6427 31.6948 83.5286C30.2329 83.4502 28.7637 83.1224 27.3527 82.8017C26.5599 82.6235 25.738 82.4382 24.9234 82.3028C23.5488 82.0676 22.3196 82.0034 21.2286 82.1032C21.2093 82.1745 21.1923 82.2481 21.1777 82.3242C22.276 82.2101 23.5052 82.2743 24.8871 82.5095C25.6944 82.652 26.509 82.8373 27.3018 83.0084C28.7273 83.3291 30.1965 83.664 31.6875 83.7424C31.9445 83.7567 32.2039 83.7638 32.4658 83.7638C34.2186 83.7638 35.9351 83.4431 37.6007 82.9585C37.6007 82.8824 37.6007 82.8064 37.6007 82.7304Z" fill="white"/>
<path d="M27.2751 68.8401C27.3697 68.5551 27.4642 68.2557 27.5079 67.9493C27.4352 67.9207 27.3648 67.8946 27.297 67.8708C27.2606 68.1773 27.166 68.4695 27.0642 68.776C26.9769 69.0468 26.8897 69.3177 26.8387 69.6027C26.5769 71.1636 27.7334 72.8812 29.4135 73.4442C29.8862 73.601 30.3808 73.6723 30.8972 73.6723C32.0027 73.6723 33.1737 73.3302 34.2283 72.6674C35.6612 71.7694 36.7303 70.4509 37.5886 69.2535C37.494 69.2749 37.3922 69.2891 37.2904 69.3034C36.4612 70.4295 35.443 71.6482 34.112 72.4821C32.6137 73.4229 30.8899 73.7079 29.4862 73.2447C27.9006 72.7101 26.8097 71.0994 27.0569 69.6384C27.1006 69.3675 27.1879 69.1038 27.2751 68.8401Z" fill="white"/>
<path d="M42.4784 62.4678C42.0202 61.1635 41.4165 59.9163 40.6529 58.7617C40.3328 58.277 40.0346 57.8922 39.8819 57.8423C39.5619 57.7354 39.7583 58.7902 39.8819 59.339C39.9328 59.5243 39.9546 59.6597 39.9546 59.6597C39.9546 59.6597 39.9255 59.5314 39.8819 59.339C39.7655 58.9256 39.5328 58.2628 39.1546 58.163C38.6964 58.0418 39.0964 59.51 39.2273 59.959C39.2564 60.0374 39.2637 60.0873 39.2637 60.0873C39.2637 60.0873 39.2491 60.0374 39.2273 59.959C39.1618 59.7595 39.0018 59.396 38.6818 59.2677C38.2454 59.0895 38.8636 61.192 38.8636 61.192C38.8636 61.192 38.5291 60.2441 38.0927 60.351C37.8818 60.4009 38.2891 62.3395 38.7691 64.3279L42.5221 62.5889L42.4784 62.4678Z" fill="#E28B6D"/>
<path fill-rule="evenodd" clip-rule="evenodd" d="M15.7417 60.7423C14.7525 60.7066 13.8361 60.108 13.407 59.2385C13.1597 59.3596 12.8906 59.4523 12.6142 59.5164C11.6978 59.7088 10.7523 59.3881 10.3159 58.7324C10.0395 58.3048 9.98857 57.813 10.0322 57.3284C9.12306 57.7988 7.91571 58.0411 7.29021 57.25C6.82473 56.6656 6.99928 55.846 7.16657 55.29C7.84298 53.0735 9.20307 51.0352 11.0141 49.5527L11.1959 49.7665C9.43581 51.2205 8.10481 53.2089 7.45022 55.3684C7.20293 56.1667 7.22475 56.7083 7.52295 57.0789C7.8648 57.5066 8.73031 57.7418 10.054 56.9934C10.0637 56.9887 10.0759 56.9815 10.0904 56.972C10.134 56.7511 10.185 56.5444 10.2504 56.3449C10.8032 54.4847 11.7414 52.7029 12.9633 51.1777C13.567 50.4151 14.2289 50.1158 14.7816 50.3438C15.2762 50.5505 15.458 51.1064 15.4217 51.5412C15.3853 52.0116 15.1453 52.4178 14.9198 52.7671C13.7779 54.556 12.1996 56.0669 10.3522 57.1502C10.2722 57.642 10.2868 58.1551 10.5632 58.5756C10.9923 59.2313 11.8942 59.3739 12.556 59.2313C12.8106 59.1814 13.0579 59.0888 13.2979 58.9748C12.9706 58.0625 13.1961 57.0077 13.8652 56.3021C14.2434 55.903 14.7016 55.7319 15.0871 55.8531C15.3053 55.9172 15.4799 56.0669 15.5962 56.2878C15.7417 56.5587 15.7708 56.8936 15.6762 57.1859C15.5235 57.6705 15.1162 58.034 14.7525 58.3262C14.418 58.6041 14.0543 58.8821 13.6615 59.103C14.0398 59.8728 14.8834 60.4215 15.7562 60.4572L15.7417 60.7423ZM14.8325 56.1025C14.5489 56.1025 14.2652 56.2878 14.0761 56.4945C13.4943 57.1003 13.2906 58.0411 13.5524 58.8322C13.9088 58.6255 14.2434 58.369 14.5634 58.1124C14.9125 57.8273 15.2617 57.5137 15.3926 57.1003C15.4653 56.8794 15.4435 56.6228 15.3344 56.4161C15.2835 56.3163 15.1744 56.1809 14.9998 56.1239C14.9465 56.1097 14.8907 56.1025 14.8325 56.1025ZM14.3961 50.5505C13.887 50.5505 13.3924 51.0922 13.1888 51.3559C11.9887 52.8526 11.0723 54.6058 10.5195 56.4232C10.4856 56.5373 10.4541 56.6537 10.425 56.7725C12.1414 55.7177 13.5961 54.2923 14.6725 52.6174C14.8762 52.2967 15.0944 51.9189 15.1307 51.5198C15.1598 51.1706 15.0071 50.7501 14.6652 50.6075C14.5707 50.5648 14.4834 50.5505 14.3961 50.5505Z" fill="white"/>
<path d="M162.701 102.749H3.18066V102.464H162.701V102.749Z" fill="#BB5214"/>
<ellipse cx="0.918714" cy="12.7357" rx="0.674086" ry="0.673659" fill="#F9F9F9"/>
<ellipse cx="0.918714" cy="15.7254" rx="0.674086" ry="0.673659" fill="#F9F9F9"/>
<ellipse cx="0.918714" cy="18.7164" rx="0.674086" ry="0.673659" fill="#F9F9F9"/>
<ellipse cx="0.918714" cy="21.7056" rx="0.674086" ry="0.673659" fill="#F9F9F9"/>
<ellipse cx="0.918714" cy="24.6297" rx="0.674086" ry="0.673659" fill="#F9F9F9"/>
<ellipse cx="3.90797" cy="12.7357" rx="0.674086" ry="0.673659" fill="#F9F9F9"/>
<ellipse cx="3.90797" cy="15.7266" rx="0.674086" ry="0.673659" fill="#F9F9F9"/>
<ellipse cx="3.90797" cy="18.7164" rx="0.674086" ry="0.673659" fill="#F9F9F9"/>
<ellipse cx="3.90797" cy="21.7069" rx="0.674086" ry="0.673659" fill="#F9F9F9"/>
<ellipse cx="3.90797" cy="24.6297" rx="0.674086" ry="0.673659" fill="#F9F9F9"/>
<ellipse cx="6.90211" cy="12.7357" rx="0.674086" ry="0.673659" fill="#F9F9F9"/>
<ellipse cx="6.90211" cy="15.7266" rx="0.674086" ry="0.673659" fill="#F9F9F9"/>
<ellipse cx="6.90211" cy="18.7164" rx="0.674086" ry="0.673659" fill="#F9F9F9"/>
<ellipse cx="6.90211" cy="21.7069" rx="0.674086" ry="0.673659" fill="#F9F9F9"/>
<ellipse cx="6.90211" cy="24.6297" rx="0.674086" ry="0.673659" fill="#F9F9F9"/>
<ellipse cx="9.89625" cy="12.7357" rx="0.674086" ry="0.673659" fill="#F9F9F9"/>
<ellipse cx="9.89625" cy="15.7266" rx="0.674086" ry="0.673659" fill="#F9F9F9"/>
<ellipse cx="9.89625" cy="18.7164" rx="0.674086" ry="0.673659" fill="#F9F9F9"/>
<ellipse cx="9.89625" cy="21.7069" rx="0.674086" ry="0.673659" fill="#F9F9F9"/>
<ellipse cx="9.89625" cy="24.6297" rx="0.674086" ry="0.673659" fill="#F9F9F9"/>
<ellipse cx="12.8855" cy="12.7357" rx="0.674086" ry="0.673659" fill="#F9F9F9"/>
<ellipse cx="12.8855" cy="15.7266" rx="0.674086" ry="0.673659" fill="#F9F9F9"/>
<ellipse cx="12.8855" cy="18.7164" rx="0.674086" ry="0.673659" fill="#F9F9F9"/>
<ellipse cx="12.8855" cy="21.7069" rx="0.674086" ry="0.673659" fill="#F9F9F9"/>
<ellipse cx="12.8855" cy="24.6297" rx="0.674086" ry="0.673659" fill="#F9F9F9"/>
</g>
<defs>
<linearGradient id="paint0_linear_1_2" x1="-145" y1="56" x2="182" y2="56" gradientUnits="userSpaceOnUse">
<stop stop-color="#E74D48"/>
<stop offset="1" stop-color="#EE8311"/>
</linearGradient>
<clipPath id="clip0_1_2">
<rect width="375" height="812" fill="white" transform="translate(0 -101)"/>
</clipPath>
</defs>
</svg>
